<svg xmlns="http://www.w3.org/2000/svg" xmlns:xlink="http://www.w3.org/1999/xlink" width="500" zoomAndPan="magnify" viewBox="0 0 375 374.999991" height="500" preserveAspectRatio="xMidYMid meet" version="1.0"><defs><g/></defs><g fill="#000000" fill-opacity="1"><g transform="translate(50.624226, 176.249988)"><g><path d="M 13.828125 -24.59375 L 19.984375 -24.578125 C 22.023438 -24.546875 23.050781 -23.53125 23.0625 -21.53125 C 23.050781 -19.457031 22.019531 -18.425781 19.96875 -18.4375 L 13.84375 -18.421875 C 9.75 -18.453125 7.703125 -16.410156 7.703125 -12.296875 C 7.703125 -8.210938 9.75 -6.160156 13.84375 -6.140625 L 19.96875 -6.140625 C 22.019531 -6.097656 23.046875 -5.082031 23.046875 -3.09375 C 23.046875 -1.039062 22.03125 -0.0078125 20 0 L 13.84375 0 C 5.644531 0 1.539062 -4.101562 1.53125 -12.3125 C 1.53125 -20.507812 5.628906 -24.601562 13.828125 -24.59375 Z M 13.828125 -24.59375 "/></g></g><g transform="translate(75.218218, 176.249988)"><g><path d="M 4.609375 -24.625 C 6.671875 -24.570312 7.710938 -23.566406 7.734375 -21.609375 L 7.703125 -6.171875 L 19.921875 -6.171875 C 21.992188 -6.160156 23.03125 -5.125 23.03125 -3.0625 C 23.019531 -1.039062 22.003906 -0.0195312 19.984375 0 L 4.609375 0 C 2.566406 0 1.539062 -0.992188 1.53125 -2.984375 L 1.53125 -21.515625 C 1.539062 -23.546875 2.566406 -24.582031 4.609375 -24.625 Z M 4.609375 -24.625 "/></g></g><g transform="translate(99.812211, 176.249988)"><g><path d="M 4.609375 -24.625 L 20.171875 -24.59375 C 22.085938 -24.5625 23.050781 -23.566406 23.0625 -21.609375 C 23.0625 -19.515625 22.023438 -18.453125 19.953125 -18.421875 L 7.703125 -18.421875 L 7.703125 -6.171875 L 19.921875 -6.171875 C 21.992188 -6.160156 23.03125 -5.125 23.03125 -3.0625 C 23.019531 -1.039062 22.003906 -0.0195312 19.984375 0 L 4.609375 0 C 2.566406 0 1.539062 -0.992188 1.53125 -2.984375 L 1.53125 -21.515625 C 1.539062 -23.546875 2.566406 -24.582031 4.609375 -24.625 Z M 9.171875 -12.234375 C 9.191406 -14.273438 10.207031 -15.3125 12.21875 -15.34375 L 18.40625 -15.34375 C 20.457031 -15.320312 21.5 -14.296875 21.53125 -12.265625 C 21.488281 -10.210938 20.453125 -9.1875 18.421875 -9.1875 L 12.234375 -9.1875 C 10.203125 -9.175781 9.179688 -10.191406 9.171875 -12.234375 Z M 9.171875 -12.234375 "/></g></g><g transform="translate(124.406203, 176.249988)"><g><path d="M 4.65625 -24.65625 C 5.675781 -24.65625 6.445312 -24.398438 6.96875 -23.890625 C 7.488281 -23.390625 9.3125 -21.25 12.4375 -17.46875 C 15.613281 -21.3125 17.460938 -23.484375 17.984375 -23.984375 C 18.503906 -24.484375 19.273438 -24.734375 20.296875 -24.734375 C 21.296875 -24.734375 22.066406 -24.472656 22.609375 -23.953125 C 23.148438 -23.429688 23.40625 -22.65625 23.375 -21.625 C 23.375 -20.539062 22.832031 -19.523438 21.75 -18.578125 L 15.453125 -11.234375 L 15.4375 -3.0625 C 15.394531 -1.050781 14.363281 -0.03125 12.34375 0 C 10.3125 0.0507812 9.296875 -1 9.296875 -3.15625 L 9.265625 -11.265625 L 3.203125 -18.484375 C 2.117188 -19.441406 1.578125 -20.460938 1.578125 -21.546875 C 1.546875 -22.585938 1.796875 -23.363281 2.328125 -23.875 C 2.867188 -24.394531 3.644531 -24.65625 4.65625 -24.65625 Z M 4.65625 -24.65625 "/></g></g><g transform="translate(149.030957, 176.249988)"><g><path d="M 4.609375 -24.625 L 20.171875 -24.59375 C 22.085938 -24.5625 23.050781 -23.566406 23.0625 -21.609375 C 23.0625 -19.515625 22.023438 -18.453125 19.953125 -18.421875 L 15.359375 -18.421875 L 15.375 -3.0625 C 15.351562 -1.039062 14.320312 -0.0195312 12.28125 0 C 10.226562 0 9.203125 -0.992188 9.203125 -2.984375 L 9.21875 -18.421875 L 4.609375 -18.421875 C 2.554688 -18.421875 1.53125 -19.453125 1.53125 -21.515625 C 1.539062 -23.546875 2.566406 -24.582031 4.609375 -24.625 Z M 4.609375 -24.625 "/></g></g><g transform="translate(173.62495, 176.249988)"><g><path d="M 4.625 0.015625 C 4.101562 0.015625 3.597656 -0.113281 3.109375 -0.375 C 2.617188 -0.632812 2.234375 -1.007812 1.953125 -1.5 C 1.679688 -2 1.546875 -2.519531 1.546875 -3.0625 C 1.546875 -3.59375 3.078125 -6.9375 6.140625 -13.09375 C 9.210938 -19.257812 10.878906 -22.585938 11.140625 -23.078125 C 11.410156 -23.566406 11.789062 -23.945312 12.28125 -24.21875 C 12.769531 -24.488281 13.285156 -24.625 13.828125 -24.625 C 14.359375 -24.625 14.863281 -24.488281 15.34375 -24.21875 C 15.832031 -23.945312 16.210938 -23.566406 16.484375 -23.078125 C 16.753906 -22.585938 18.429688 -19.257812 21.515625 -13.09375 C 24.597656 -6.9375 26.140625 -3.59375 26.140625 -3.0625 C 26.140625 -2.519531 26 -2 25.71875 -1.5 C 25.445312 -1.007812 25.0625 -0.632812 24.5625 -0.375 C 24.070312 -0.113281 23.570312 0.015625 23.0625 0.015625 Z M 18.03125 -6.1875 L 13.828125 -14.84375 L 9.59375 -6.1875 Z M 18.03125 -6.1875 "/></g></g><g transform="translate(201.295114, 176.249988)"><g/></g><g transform="translate(216.660592, 176.249988)"><g><path d="M 12.3125 -24.59375 C 19.488281 -24.601562 23.082031 -20.503906 23.09375 -12.296875 C 23.101562 -10.242188 22.078125 -9.222656 20.015625 -9.234375 L 7.703125 -9.25 C 7.722656 -7.1875 9.253906 -6.148438 12.296875 -6.140625 L 20.03125 -6.171875 C 22.039062 -6.160156 23.0625 -5.128906 23.09375 -3.078125 C 23.082031 -1.015625 22.054688 0.0078125 20.015625 0 L 12.34375 0 C 5.144531 -0.0078125 1.539062 -4.113281 1.53125 -12.3125 C 1.539062 -14.34375 2.566406 -15.363281 4.609375 -15.375 L 16.921875 -15.359375 C 16.921875 -17.410156 15.40625 -18.429688 12.375 -18.421875 L 4.640625 -18.421875 C 2.609375 -18.472656 1.570312 -19.507812 1.53125 -21.53125 C 1.582031 -23.582031 2.617188 -24.601562 4.640625 -24.59375 Z M 12.3125 -24.59375 "/></g></g><g transform="translate(241.269965, 176.249988)"><g><path d="M 13.828125 -24.59375 C 15.890625 -24.59375 17.898438 -24.0625 19.859375 -23 C 21.828125 -21.9375 23.367188 -20.414062 24.484375 -18.4375 C 25.597656 -16.46875 26.15625 -14.414062 26.15625 -12.28125 C 26.15625 -10.144531 25.613281 -8.097656 24.53125 -6.140625 C 23.445312 -4.191406 21.925781 -2.675781 19.96875 -1.59375 C 18.007812 -0.507812 15.960938 0.03125 13.828125 0.03125 C 11.703125 0.03125 9.660156 -0.507812 7.703125 -1.59375 C 5.742188 -2.675781 4.222656 -4.191406 3.140625 -6.140625 C 2.054688 -8.097656 1.515625 -10.144531 1.515625 -12.28125 C 1.515625 -14.414062 2.0625 -16.46875 3.15625 -18.4375 C 4.257812 -20.414062 5.789062 -21.9375 7.75 -23 C 9.71875 -24.0625 11.742188 -24.59375 13.828125 -24.59375 Z M 13.84375 -18.46875 C 12.800781 -18.46875 11.789062 -18.203125 10.8125 -17.671875 C 9.832031 -17.148438 9.066406 -16.394531 8.515625 -15.40625 C 7.960938 -14.414062 7.6875 -13.382812 7.6875 -12.3125 C 7.6875 -11.238281 7.957031 -10.210938 8.5 -9.234375 C 9.039062 -8.265625 9.800781 -7.507812 10.78125 -6.96875 C 11.757812 -6.425781 12.78125 -6.15625 13.84375 -6.15625 C 14.914062 -6.15625 15.941406 -6.425781 16.921875 -6.96875 C 17.898438 -7.507812 18.660156 -8.265625 19.203125 -9.234375 C 19.742188 -10.210938 20.015625 -11.238281 20.015625 -12.3125 C 20.015625 -13.382812 19.738281 -14.414062 19.1875 -15.40625 C 18.632812 -16.394531 17.863281 -17.148438 16.875 -17.671875 C 15.894531 -18.203125 14.882812 -18.46875 13.84375 -18.46875 Z M 13.828125 -15.3125 C 14.335938 -15.3125 14.832031 -15.175781 15.3125 -14.90625 C 15.800781 -14.644531 16.179688 -14.269531 16.453125 -13.78125 C 16.734375 -13.300781 16.875 -12.789062 16.875 -12.25 C 16.875 -11.71875 16.738281 -11.207031 16.46875 -10.71875 C 16.195312 -10.238281 15.820312 -9.863281 15.34375 -9.59375 C 14.863281 -9.332031 14.359375 -9.203125 13.828125 -9.203125 C 13.285156 -9.203125 12.769531 -9.332031 12.28125 -9.59375 C 11.800781 -9.863281 11.425781 -10.238281 11.15625 -10.71875 C 10.894531 -11.207031 10.765625 -11.71875 10.765625 -12.25 C 10.765625 -12.789062 10.898438 -13.300781 11.171875 -13.78125 C 11.441406 -14.269531 11.816406 -14.644531 12.296875 -14.90625 C 12.785156 -15.175781 13.296875 -15.3125 13.828125 -15.3125 Z M 13.828125 -15.3125 "/></g></g><g transform="translate(268.970891, 176.249988)"><g><path d="M 13.828125 -24.59375 C 15.890625 -24.59375 17.898438 -24.0625 19.859375 -23 C 21.828125 -21.9375 23.367188 -20.414062 24.484375 -18.4375 C 25.597656 -16.46875 26.15625 -14.414062 26.15625 -12.28125 C 26.15625 -10.144531 25.613281 -8.097656 24.53125 -6.140625 C 23.445312 -4.191406 21.925781 -2.675781 19.96875 -1.59375 C 18.007812 -0.507812 15.960938 0.03125 13.828125 0.03125 C 11.703125 0.03125 9.660156 -0.507812 7.703125 -1.59375 C 5.742188 -2.675781 4.222656 -4.191406 3.140625 -6.140625 C 2.054688 -8.097656 1.515625 -10.144531 1.515625 -12.28125 C 1.515625 -14.414062 2.0625 -16.46875 3.15625 -18.4375 C 4.257812 -20.414062 5.789062 -21.9375 7.75 -23 C 9.71875 -24.0625 11.742188 -24.59375 13.828125 -24.59375 Z M 13.84375 -18.46875 C 12.800781 -18.46875 11.789062 -18.203125 10.8125 -17.671875 C 9.832031 -17.148438 9.066406 -16.394531 8.515625 -15.40625 C 7.960938 -14.414062 7.6875 -13.382812 7.6875 -12.3125 C 7.6875 -11.238281 7.957031 -10.210938 8.5 -9.234375 C 9.039062 -8.265625 9.800781 -7.507812 10.78125 -6.96875 C 11.757812 -6.425781 12.78125 -6.15625 13.84375 -6.15625 C 14.914062 -6.15625 15.941406 -6.425781 16.921875 -6.96875 C 17.898438 -7.507812 18.660156 -8.265625 19.203125 -9.234375 C 19.742188 -10.210938 20.015625 -11.238281 20.015625 -12.3125 C 20.015625 -13.382812 19.738281 -14.414062 19.1875 -15.40625 C 18.632812 -16.394531 17.863281 -17.148438 16.875 -17.671875 C 15.894531 -18.203125 14.882812 -18.46875 13.84375 -18.46875 Z M 13.828125 -15.3125 C 14.335938 -15.3125 14.832031 -15.175781 15.3125 -14.90625 C 15.800781 -14.644531 16.179688 -14.269531 16.453125 -13.78125 C 16.734375 -13.300781 16.875 -12.789062 16.875 -12.25 C 16.875 -11.71875 16.738281 -11.207031 16.46875 -10.71875 C 16.195312 -10.238281 15.820312 -9.863281 15.34375 -9.59375 C 14.863281 -9.332031 14.359375 -9.203125 13.828125 -9.203125 C 13.285156 -9.203125 12.769531 -9.332031 12.28125 -9.59375 C 11.800781 -9.863281 11.425781 -10.238281 11.15625 -10.71875 C 10.894531 -11.207031 10.765625 -11.71875 10.765625 -12.25 C 10.765625 -12.789062 10.898438 -13.300781 11.171875 -13.78125 C 11.441406 -14.269531 11.816406 -14.644531 12.296875 -14.90625 C 12.785156 -15.175781 13.296875 -15.3125 13.828125 -15.3125 Z M 13.828125 -15.3125 "/></g></g><g transform="translate(296.671817, 176.249988)"><g><path d="M 13.828125 -24.59375 C 15.890625 -24.59375 17.898438 -24.0625 19.859375 -23 C 21.828125 -21.9375 23.367188 -20.414062 24.484375 -18.4375 C 25.597656 -16.46875 26.15625 -14.414062 26.15625 -12.28125 C 26.15625 -10.144531 25.613281 -8.097656 24.53125 -6.140625 C 23.445312 -4.191406 21.925781 -2.675781 19.96875 -1.59375 C 18.007812 -0.507812 15.960938 0.03125 13.828125 0.03125 C 11.703125 0.03125 9.660156 -0.507812 7.703125 -1.59375 C 5.742188 -2.675781 4.222656 -4.191406 3.140625 -6.140625 C 2.054688 -8.097656 1.515625 -10.144531 1.515625 -12.28125 C 1.515625 -14.414062 2.0625 -16.46875 3.15625 -18.4375 C 4.257812 -20.414062 5.789062 -21.9375 7.75 -23 C 9.71875 -24.0625 11.742188 -24.59375 13.828125 -24.59375 Z M 13.84375 -18.46875 C 12.800781 -18.46875 11.789062 -18.203125 10.8125 -17.671875 C 9.832031 -17.148438 9.066406 -16.394531 8.515625 -15.40625 C 7.960938 -14.414062 7.6875 -13.382812 7.6875 -12.3125 C 7.6875 -11.238281 7.957031 -10.210938 8.5 -9.234375 C 9.039062 -8.265625 9.800781 -7.507812 10.78125 -6.96875 C 11.757812 -6.425781 12.78125 -6.15625 13.84375 -6.15625 C 14.914062 -6.15625 15.941406 -6.425781 16.921875 -6.96875 C 17.898438 -7.507812 18.660156 -8.265625 19.203125 -9.234375 C 19.742188 -10.210938 20.015625 -11.238281 20.015625 -12.3125 C 20.015625 -13.382812 19.738281 -14.414062 19.1875 -15.40625 C 18.632812 -16.394531 17.863281 -17.148438 16.875 -17.671875 C 15.894531 -18.203125 14.882812 -18.46875 13.84375 -18.46875 Z M 13.828125 -15.3125 C 14.335938 -15.3125 14.832031 -15.175781 15.3125 -14.90625 C 15.800781 -14.644531 16.179688 -14.269531 16.453125 -13.78125 C 16.734375 -13.300781 16.875 -12.789062 16.875 -12.25 C 16.875 -11.71875 16.738281 -11.207031 16.46875 -10.71875 C 16.195312 -10.238281 15.820312 -9.863281 15.34375 -9.59375 C 14.863281 -9.332031 14.359375 -9.203125 13.828125 -9.203125 C 13.285156 -9.203125 12.769531 -9.332031 12.28125 -9.59375 C 11.800781 -9.863281 11.425781 -10.238281 11.15625 -10.71875 C 10.894531 -11.207031 10.765625 -11.71875 10.765625 -12.25 C 10.765625 -12.789062 10.898438 -13.300781 11.171875 -13.78125 C 11.441406 -14.269531 11.816406 -14.644531 12.296875 -14.90625 C 12.785156 -15.175781 13.296875 -15.3125 13.828125 -15.3125 Z M 13.828125 -15.3125 "/></g></g></g></svg>