<svg xmlns="http://www.w3.org/2000/svg" xmlns:xlink="http://www.w3.org/1999/xlink" width="500" zoomAndPan="magnify" viewBox="0 0 375 374.999991" height="500" preserveAspectRatio="xMidYMid meet" version="1.0"><defs><g/></defs><g fill="#000000" fill-opacity="1"><g transform="translate(98.330477, 176.249988)"><g><path d="M 13.828125 -24.59375 L 19.984375 -24.578125 C 22.023438 -24.546875 23.050781 -23.53125 23.0625 -21.53125 C 23.050781 -19.457031 22.019531 -18.425781 19.96875 -18.4375 L 13.84375 -18.421875 C 9.75 -18.453125 7.703125 -16.410156 7.703125 -12.296875 C 7.703125 -8.210938 9.75 -6.160156 13.84375 -6.140625 L 19.96875 -6.140625 C 22.019531 -6.097656 23.046875 -5.082031 23.046875 -3.09375 C 23.046875 -1.039062 22.03125 -0.0078125 20 0 L 13.84375 0 C 5.644531 0 1.539062 -4.101562 1.53125 -12.3125 C 1.53125 -20.507812 5.628906 -24.601562 13.828125 -24.59375 Z M 13.828125 -24.59375 "/></g></g><g transform="translate(122.924469, 176.249988)"><g><path d="M 13.828125 -24.59375 C 15.890625 -24.59375 17.898438 -24.0625 19.859375 -23 C 21.828125 -21.9375 23.367188 -20.414062 24.484375 -18.4375 C 25.597656 -16.46875 26.15625 -14.414062 26.15625 -12.28125 C 26.15625 -10.144531 25.613281 -8.097656 24.53125 -6.140625 C 23.445312 -4.191406 21.925781 -2.675781 19.96875 -1.59375 C 18.007812 -0.507812 15.960938 0.03125 13.828125 0.03125 C 11.703125 0.03125 9.660156 -0.507812 7.703125 -1.59375 C 5.742188 -2.675781 4.222656 -4.191406 3.140625 -6.140625 C 2.054688 -8.097656 1.515625 -10.144531 1.515625 -12.28125 C 1.515625 -14.414062 2.0625 -16.46875 3.15625 -18.4375 C 4.257812 -20.414062 5.789062 -21.9375 7.75 -23 C 9.71875 -24.0625 11.742188 -24.59375 13.828125 -24.59375 Z M 13.84375 -18.46875 C 12.800781 -18.46875 11.789062 -18.203125 10.8125 -17.671875 C 9.832031 -17.148438 9.066406 -16.394531 8.515625 -15.40625 C 7.960938 -14.414062 7.6875 -13.382812 7.6875 -12.3125 C 7.6875 -11.238281 7.957031 -10.210938 8.5 -9.234375 C 9.039062 -8.265625 9.800781 -7.507812 10.78125 -6.96875 C 11.757812 -6.425781 12.78125 -6.15625 13.84375 -6.15625 C 14.914062 -6.15625 15.941406 -6.425781 16.921875 -6.96875 C 17.898438 -7.507812 18.660156 -8.265625 19.203125 -9.234375 C 19.742188 -10.210938 20.015625 -11.238281 20.015625 -12.3125 C 20.015625 -13.382812 19.738281 -14.414062 19.1875 -15.40625 C 18.632812 -16.394531 17.863281 -17.148438 16.875 -17.671875 C 15.894531 -18.203125 14.882812 -18.46875 13.84375 -18.46875 Z M 13.84375 -18.46875 "/></g></g><g transform="translate(150.625395, 176.249988)"><g><path d="M 23.0625 -24.625 C 23.570312 -24.625 24.070312 -24.488281 24.5625 -24.21875 C 25.0625 -23.957031 25.445312 -23.578125 25.71875 -23.078125 C 26 -22.585938 26.140625 -22.078125 26.140625 -21.546875 C 26.140625 -21.015625 24.597656 -17.664062 21.515625 -11.5 C 18.429688 -5.332031 16.753906 -2.003906 16.484375 -1.515625 C 16.210938 -1.035156 15.832031 -0.660156 15.34375 -0.390625 C 14.863281 -0.117188 14.359375 0.015625 13.828125 0.015625 C 13.285156 0.015625 12.769531 -0.117188 12.28125 -0.390625 C 11.789062 -0.660156 11.410156 -1.035156 11.140625 -1.515625 C 10.878906 -2.003906 9.210938 -5.332031 6.140625 -11.5 C 3.078125 -17.664062 1.546875 -21.015625 1.546875 -21.546875 C 1.546875 -22.078125 1.679688 -22.585938 1.953125 -23.078125 C 2.234375 -23.578125 2.617188 -23.957031 3.109375 -24.21875 C 3.597656 -24.488281 4.101562 -24.625 4.625 -24.625 C 5.132812 -24.625 5.632812 -24.488281 6.125 -24.21875 C 6.625 -23.957031 7.007812 -23.578125 7.28125 -23.078125 C 7.5625 -22.585938 9.742188 -18.144531 13.828125 -9.75 C 17.929688 -18.144531 20.117188 -22.585938 20.390625 -23.078125 C 20.671875 -23.578125 21.054688 -23.957031 21.546875 -24.21875 C 22.035156 -24.488281 22.539062 -24.625 23.0625 -24.625 Z M 23.0625 -24.625 "/></g></g><g transform="translate(178.295559, 176.249988)"><g><path d="M 4.59375 -24.59375 C 6.644531 -24.570312 7.6875 -23.554688 7.71875 -21.546875 L 7.71875 -3.0625 C 7.695312 -1.007812 6.664062 0.03125 4.625 0.0625 C 2.570312 0.0195312 1.546875 -1.015625 1.546875 -3.046875 L 1.546875 -21.53125 C 1.535156 -23.5625 2.550781 -24.582031 4.59375 -24.59375 Z M 4.59375 -24.59375 "/></g></g><g transform="translate(187.493313, 176.249988)"><g><path d="M 4.609375 -24.59375 L 13.84375 -24.59375 C 22.050781 -24.582031 26.15625 -20.484375 26.15625 -12.296875 C 26.144531 -4.117188 22.144531 -0.0195312 14.15625 0 L 4.609375 0 C 2.554688 0.0195312 1.53125 -1.003906 1.53125 -3.078125 L 1.53125 -21.515625 C 1.53125 -23.546875 2.554688 -24.570312 4.609375 -24.59375 Z M 7.703125 -18.421875 L 7.703125 -6.171875 L 13.859375 -6.171875 C 17.941406 -6.140625 19.972656 -8.191406 19.953125 -12.328125 C 19.972656 -16.367188 17.9375 -18.398438 13.84375 -18.421875 Z M 7.703125 -18.421875 "/></g></g><g transform="translate(215.194239, 176.249988)"><g><path d="M 4.59375 -24.59375 C 6.644531 -24.570312 7.6875 -23.554688 7.71875 -21.546875 L 7.71875 -3.0625 C 7.695312 -1.007812 6.664062 0.03125 4.625 0.0625 C 2.570312 0.0195312 1.546875 -1.015625 1.546875 -3.046875 L 1.546875 -21.53125 C 1.535156 -23.5625 2.550781 -24.582031 4.59375 -24.59375 Z M 4.59375 -24.59375 "/></g></g><g transform="translate(224.391992, 176.249988)"><g><path d="M 5.015625 -24.5625 C 6.140625 -24.476562 7.035156 -24.054688 7.703125 -23.296875 L 16.90625 -11.546875 L 16.90625 -21.875 C 16.945312 -23.632812 17.820312 -24.53125 19.53125 -24.5625 C 21.832031 -24.53125 22.992188 -23.613281 23.015625 -21.8125 L 23.046875 -2.671875 C 23.023438 -0.910156 21.851562 -0.0195312 19.53125 0 C 18.46875 -0.0078125 17.609375 -0.429688 16.953125 -1.265625 L 7.703125 -12.984375 L 7.703125 -2.671875 C 7.691406 -0.898438 6.796875 -0.0078125 5.015625 0 C 2.703125 0.0078125 1.539062 -0.890625 1.53125 -2.703125 L 1.53125 -21.890625 C 1.519531 -23.660156 2.679688 -24.550781 5.015625 -24.5625 Z M 5.015625 -24.5625 "/></g></g><g transform="translate(249.001365, 176.249988)"><g><path d="M 4.625 0.015625 C 4.101562 0.015625 3.597656 -0.113281 3.109375 -0.375 C 2.617188 -0.632812 2.234375 -1.007812 1.953125 -1.5 C 1.679688 -2 1.546875 -2.519531 1.546875 -3.0625 C 1.546875 -3.59375 3.078125 -6.9375 6.140625 -13.09375 C 9.210938 -19.257812 10.878906 -22.585938 11.140625 -23.078125 C 11.410156 -23.566406 11.789062 -23.945312 12.28125 -24.21875 C 12.769531 -24.488281 13.285156 -24.625 13.828125 -24.625 C 14.359375 -24.625 14.863281 -24.488281 15.34375 -24.21875 C 15.832031 -23.945312 16.210938 -23.566406 16.484375 -23.078125 C 16.753906 -22.585938 18.429688 -19.257812 21.515625 -13.09375 C 24.597656 -6.9375 26.140625 -3.59375 26.140625 -3.0625 C 26.140625 -2.519531 26 -2 25.71875 -1.5 C 25.445312 -1.007812 25.0625 -0.632812 24.5625 -0.375 C 24.070312 -0.113281 23.570312 0.015625 23.0625 0.015625 Z M 18.03125 -6.1875 L 13.828125 -14.84375 L 9.59375 -6.1875 Z M 18.03125 -6.1875 "/></g></g></g></svg>