<svg xmlns="http://www.w3.org/2000/svg" xmlns:xlink="http://www.w3.org/1999/xlink" width="500" zoomAndPan="magnify" viewBox="0 0 375 374.999991" height="500" preserveAspectRatio="xMidYMid meet" version="1.0"><defs><g/></defs><g fill="#000000" fill-opacity="1"><g transform="translate(11.022002, 172.899963)"><g><path d="M 4.03125 -21.46875 C 4.9375 -21.445312 5.601562 -21.21875 6.03125 -20.78125 C 6.457031 -20.34375 8.484375 -18.320312 12.109375 -14.71875 C 15.691406 -18.300781 17.707031 -20.320312 18.15625 -20.78125 C 18.601562 -21.238281 19.269531 -21.46875 20.15625 -21.46875 C 21.9375 -21.457031 22.832031 -20.566406 22.84375 -18.796875 L 22.859375 -2.6875 C 22.859375 -0.90625 21.953125 0 20.140625 0.03125 C 18.367188 0.0195312 17.472656 -0.882812 17.453125 -2.6875 L 17.453125 -12.171875 C 15.648438 -10.328125 14.523438 -9.175781 14.078125 -8.71875 C 13.640625 -8.269531 12.976562 -8.046875 12.09375 -8.046875 C 11.226562 -8.046875 10.566406 -8.273438 10.109375 -8.734375 C 9.648438 -9.203125 8.523438 -10.332031 6.734375 -12.125 L 6.734375 -2.6875 C 6.722656 -0.914062 5.828125 -0.0195312 4.046875 0 C 2.242188 0.0078125 1.347656 -0.882812 1.359375 -2.6875 L 1.359375 -18.796875 C 1.359375 -20.578125 2.25 -21.46875 4.03125 -21.46875 Z M 4.03125 -21.46875 "/></g></g></g><g fill="#000000" fill-opacity="1"><g transform="translate(35.19848, 172.899963)"><g><path d="M 4.03125 -21.5 L 17.625 -21.46875 C 19.289062 -21.445312 20.128906 -20.578125 20.140625 -18.859375 C 20.140625 -17.035156 19.238281 -16.113281 17.4375 -16.09375 L 6.734375 -16.09375 L 6.734375 -5.390625 L 17.40625 -5.390625 C 19.207031 -5.378906 20.109375 -4.472656 20.109375 -2.671875 C 20.109375 -0.910156 19.222656 -0.0195312 17.453125 0 L 4.03125 0 C 2.25 0 1.351562 -0.867188 1.34375 -2.609375 L 1.34375 -18.78125 C 1.351562 -20.550781 2.25 -21.457031 4.03125 -21.5 Z M 8.015625 -10.671875 C 8.035156 -12.460938 8.921875 -13.375 10.671875 -13.40625 L 16.078125 -13.40625 C 17.867188 -13.382812 18.773438 -12.484375 18.796875 -10.703125 C 18.765625 -8.910156 17.863281 -8.015625 16.09375 -8.015625 L 10.6875 -8.015625 C 8.914062 -8.003906 8.023438 -8.890625 8.015625 -10.671875 Z M 8.015625 -10.671875 "/></g></g></g><g fill="#000000" fill-opacity="1"><g transform="translate(56.663326, 172.899963)"><g><path d="M 4.03125 -21.46875 C 4.9375 -21.445312 5.601562 -21.21875 6.03125 -20.78125 C 6.457031 -20.34375 8.484375 -18.320312 12.109375 -14.71875 C 15.691406 -18.300781 17.707031 -20.320312 18.15625 -20.78125 C 18.601562 -21.238281 19.269531 -21.46875 20.15625 -21.46875 C 21.9375 -21.457031 22.832031 -20.566406 22.84375 -18.796875 L 22.859375 -2.6875 C 22.859375 -0.90625 21.953125 0 20.140625 0.03125 C 18.367188 0.0195312 17.472656 -0.882812 17.453125 -2.6875 L 17.453125 -12.171875 C 15.648438 -10.328125 14.523438 -9.175781 14.078125 -8.71875 C 13.640625 -8.269531 12.976562 -8.046875 12.09375 -8.046875 C 11.226562 -8.046875 10.566406 -8.273438 10.109375 -8.734375 C 9.648438 -9.203125 8.523438 -10.332031 6.734375 -12.125 L 6.734375 -2.6875 C 6.722656 -0.914062 5.828125 -0.0195312 4.046875 0 C 2.242188 0.0078125 1.347656 -0.882812 1.359375 -2.6875 L 1.359375 -18.796875 C 1.359375 -20.578125 2.25 -21.46875 4.03125 -21.46875 Z M 4.03125 -21.46875 "/></g></g></g><g fill="#000000" fill-opacity="1"><g transform="translate(80.839804, 172.899963)"><g><path d="M 4.03125 -21.46875 L 13.421875 -21.46875 C 15.203125 -21.46875 16.769531 -20.796875 18.125 -19.453125 C 19.488281 -18.109375 20.160156 -16.539062 20.140625 -14.75 C 20.117188 -12.957031 19.65625 -11.628906 18.75 -10.765625 C 19.695312 -9.835938 20.160156 -8.488281 20.140625 -6.71875 C 20.128906 -4.945312 19.453125 -3.382812 18.109375 -2.03125 C 16.765625 -0.675781 15.257812 0 13.59375 0 L 4 0 C 2.226562 0.0195312 1.34375 -0.875 1.34375 -2.6875 L 1.34375 -18.78125 C 1.34375 -20.550781 2.238281 -21.445312 4.03125 -21.46875 Z M 6.734375 -16.09375 L 6.734375 -5.390625 L 13.40625 -5.390625 C 14.3125 -5.390625 14.765625 -5.832031 14.765625 -6.71875 C 14.765625 -7.613281 14.316406 -8.0625 13.421875 -8.0625 L 12.09375 -8.078125 C 10.289062 -8.078125 9.394531 -9.023438 9.40625 -10.921875 C 9.40625 -12.609375 10.300781 -13.441406 12.09375 -13.421875 L 13.421875 -13.421875 C 14.316406 -13.421875 14.753906 -13.910156 14.734375 -14.890625 C 14.753906 -15.679688 14.316406 -16.082031 13.421875 -16.09375 Z M 6.734375 -16.09375 "/></g></g></g><g fill="#000000" fill-opacity="1"><g transform="translate(102.318074, 172.899963)"><g><path d="M 4.046875 -21.46875 L 13.46875 -21.46875 C 15.226562 -21.46875 16.78125 -20.789062 18.125 -19.4375 C 19.476562 -18.082031 20.148438 -16.53125 20.140625 -14.78125 C 20.140625 -12.925781 19.800781 -11.359375 19.125 -10.078125 C 18.457031 -8.804688 17.441406 -8.148438 16.078125 -8.109375 L 19.390625 -4.75 C 19.921875 -4.226562 20.1875 -3.535156 20.1875 -2.671875 C 20.15625 -0.878906 19.257812 0.0078125 17.5 0 C 16.582031 0.03125 15.679688 -0.40625 14.796875 -1.3125 L 9.421875 -7.96875 C 8.523438 -8.925781 8.070312 -9.851562 8.0625 -10.75 C 8.0625 -12.550781 8.960938 -13.445312 10.765625 -13.4375 L 12.671875 -13.453125 C 14.085938 -13.429688 14.789062 -13.863281 14.78125 -14.75 C 14.78125 -15.644531 14.078125 -16.09375 12.671875 -16.09375 L 6.75 -16.09375 L 6.75 -2.6875 C 6.75 -0.894531 5.847656 0 4.046875 0 C 2.242188 0.0078125 1.347656 -0.875 1.359375 -2.65625 L 1.359375 -18.8125 C 1.367188 -20.5625 2.265625 -21.445312 4.046875 -21.46875 Z M 4.046875 -21.46875 "/></g></g></g><g fill="#000000" fill-opacity="1"><g transform="translate(123.809768, 172.899963)"><g><path d="M 12.078125 -21.46875 C 13.878906 -21.46875 15.632812 -21.003906 17.34375 -20.078125 C 19.0625 -19.148438 20.40625 -17.820312 21.375 -16.09375 C 22.351562 -14.375 22.84375 -12.582031 22.84375 -10.71875 C 22.84375 -8.851562 22.367188 -7.066406 21.421875 -5.359375 C 20.484375 -3.660156 19.15625 -2.335938 17.4375 -1.390625 C 15.726562 -0.441406 13.941406 0.03125 12.078125 0.03125 C 10.222656 0.03125 8.4375 -0.441406 6.71875 -1.390625 C 5.007812 -2.335938 3.679688 -3.660156 2.734375 -5.359375 C 1.796875 -7.066406 1.328125 -8.851562 1.328125 -10.71875 C 1.328125 -12.582031 1.804688 -14.375 2.765625 -16.09375 C 3.722656 -17.820312 5.054688 -19.148438 6.765625 -20.078125 C 8.484375 -21.003906 10.253906 -21.46875 12.078125 -21.46875 Z M 12.09375 -16.125 C 11.1875 -16.125 10.304688 -15.894531 9.453125 -15.4375 C 8.597656 -14.976562 7.925781 -14.316406 7.4375 -13.453125 C 6.957031 -12.585938 6.71875 -11.6875 6.71875 -10.75 C 6.71875 -9.8125 6.953125 -8.914062 7.421875 -8.0625 C 7.898438 -7.21875 8.566406 -6.554688 9.421875 -6.078125 C 10.273438 -5.609375 11.164062 -5.375 12.09375 -5.375 C 13.03125 -5.375 13.925781 -5.609375 14.78125 -6.078125 C 15.632812 -6.554688 16.296875 -7.21875 16.765625 -8.0625 C 17.242188 -8.914062 17.484375 -9.8125 17.484375 -10.75 C 17.484375 -11.6875 17.238281 -12.585938 16.75 -13.453125 C 16.269531 -14.316406 15.597656 -14.976562 14.734375 -15.4375 C 13.878906 -15.894531 13 -16.125 12.09375 -16.125 Z M 12.09375 -16.125 "/></g></g></g><g fill="#000000" fill-opacity="1"><g transform="translate(147.986246, 172.899963)"><g/></g></g><g fill="#000000" fill-opacity="1"><g transform="translate(161.396741, 172.899963)"><g><path d="M 4.03125 -21.46875 C 4.9375 -21.445312 5.601562 -21.21875 6.03125 -20.78125 C 6.457031 -20.34375 8.484375 -18.320312 12.109375 -14.71875 C 15.691406 -18.300781 17.707031 -20.320312 18.15625 -20.78125 C 18.601562 -21.238281 19.269531 -21.46875 20.15625 -21.46875 C 21.9375 -21.457031 22.832031 -20.566406 22.84375 -18.796875 L 22.859375 -2.6875 C 22.859375 -0.90625 21.953125 0 20.140625 0.03125 C 18.367188 0.0195312 17.472656 -0.882812 17.453125 -2.6875 L 17.453125 -12.171875 C 15.648438 -10.328125 14.523438 -9.175781 14.078125 -8.71875 C 13.640625 -8.269531 12.976562 -8.046875 12.09375 -8.046875 C 11.226562 -8.046875 10.566406 -8.273438 10.109375 -8.734375 C 9.648438 -9.203125 8.523438 -10.332031 6.734375 -12.125 L 6.734375 -2.6875 C 6.722656 -0.914062 5.828125 -0.0195312 4.046875 0 C 2.242188 0.0078125 1.347656 -0.882812 1.359375 -2.6875 L 1.359375 -18.796875 C 1.359375 -20.578125 2.25 -21.46875 4.03125 -21.46875 Z M 4.03125 -21.46875 "/></g></g></g><g fill="#000000" fill-opacity="1"><g transform="translate(185.573218, 172.899963)"><g><path d="M 4.03125 -21.5 L 17.625 -21.46875 C 19.289062 -21.445312 20.128906 -20.578125 20.140625 -18.859375 C 20.140625 -17.035156 19.238281 -16.113281 17.4375 -16.09375 L 6.734375 -16.09375 L 6.734375 -5.390625 L 17.40625 -5.390625 C 19.207031 -5.378906 20.109375 -4.472656 20.109375 -2.671875 C 20.109375 -0.910156 19.222656 -0.0195312 17.453125 0 L 4.03125 0 C 2.25 0 1.351562 -0.867188 1.34375 -2.609375 L 1.34375 -18.78125 C 1.351562 -20.550781 2.25 -21.457031 4.03125 -21.5 Z M 8.015625 -10.671875 C 8.035156 -12.460938 8.921875 -13.375 10.671875 -13.40625 L 16.078125 -13.40625 C 17.867188 -13.382812 18.773438 -12.484375 18.796875 -10.703125 C 18.765625 -8.910156 17.863281 -8.015625 16.09375 -8.015625 L 10.6875 -8.015625 C 8.914062 -8.003906 8.023438 -8.890625 8.015625 -10.671875 Z M 8.015625 -10.671875 "/></g></g></g><g fill="#000000" fill-opacity="1"><g transform="translate(207.038065, 172.899963)"><g><path d="M 4.03125 -21.5 L 17.625 -21.46875 C 19.289062 -21.445312 20.128906 -20.578125 20.140625 -18.859375 C 20.140625 -17.035156 19.238281 -16.113281 17.4375 -16.09375 L 13.421875 -16.09375 L 13.421875 -2.671875 C 13.410156 -0.910156 12.515625 -0.0195312 10.734375 0 C 8.941406 0 8.046875 -0.867188 8.046875 -2.609375 L 8.0625 -16.09375 L 4.03125 -16.09375 C 2.238281 -16.09375 1.34375 -16.988281 1.34375 -18.78125 C 1.351562 -20.550781 2.25 -21.457031 4.03125 -21.5 Z M 4.03125 -21.5 "/></g></g></g><g fill="#000000" fill-opacity="1"><g transform="translate(228.502899, 172.899963)"><g><path d="M 4.046875 0.015625 C 3.585938 0.015625 3.144531 -0.0976562 2.71875 -0.328125 C 2.289062 -0.554688 1.957031 -0.882812 1.71875 -1.3125 C 1.476562 -1.738281 1.359375 -2.191406 1.359375 -2.671875 C 1.359375 -3.140625 2.695312 -6.0625 5.375 -11.4375 C 8.050781 -16.820312 9.503906 -19.722656 9.734375 -20.140625 C 9.960938 -20.566406 10.289062 -20.898438 10.71875 -21.140625 C 11.15625 -21.378906 11.609375 -21.5 12.078125 -21.5 C 12.535156 -21.5 12.976562 -21.378906 13.40625 -21.140625 C 13.832031 -20.898438 14.164062 -20.566406 14.40625 -20.140625 C 14.644531 -19.722656 16.109375 -16.820312 18.796875 -11.4375 C 21.484375 -6.0625 22.828125 -3.140625 22.828125 -2.671875 C 22.828125 -2.191406 22.707031 -1.738281 22.46875 -1.3125 C 22.226562 -0.882812 21.890625 -0.554688 21.453125 -0.328125 C 21.023438 -0.0976562 20.585938 0.015625 20.140625 0.015625 Z M 15.75 -5.390625 L 12.078125 -12.953125 L 8.375 -5.390625 Z M 15.75 -5.390625 "/></g></g></g><g fill="#000000" fill-opacity="1"><g transform="translate(252.652541, 172.899963)"><g><path d="M 4.03125 -21.46875 L 13.421875 -21.46875 C 15.203125 -21.46875 16.769531 -20.796875 18.125 -19.453125 C 19.488281 -18.109375 20.160156 -16.539062 20.140625 -14.75 C 20.117188 -12.957031 19.65625 -11.628906 18.75 -10.765625 C 19.695312 -9.835938 20.160156 -8.488281 20.140625 -6.71875 C 20.128906 -4.945312 19.453125 -3.382812 18.109375 -2.03125 C 16.765625 -0.675781 15.257812 0 13.59375 0 L 4 0 C 2.226562 0.0195312 1.34375 -0.875 1.34375 -2.6875 L 1.34375 -18.78125 C 1.34375 -20.550781 2.238281 -21.445312 4.03125 -21.46875 Z M 6.734375 -16.09375 L 6.734375 -5.390625 L 13.40625 -5.390625 C 14.3125 -5.390625 14.765625 -5.832031 14.765625 -6.71875 C 14.765625 -7.613281 14.316406 -8.0625 13.421875 -8.0625 L 12.09375 -8.078125 C 10.289062 -8.078125 9.394531 -9.023438 9.40625 -10.921875 C 9.40625 -12.609375 10.300781 -13.441406 12.09375 -13.421875 L 13.421875 -13.421875 C 14.316406 -13.421875 14.753906 -13.910156 14.734375 -14.890625 C 14.753906 -15.679688 14.316406 -16.082031 13.421875 -16.09375 Z M 6.734375 -16.09375 "/></g></g></g><g fill="#000000" fill-opacity="1"><g transform="translate(274.13081, 172.899963)"><g><path d="M 12.078125 -21.46875 C 13.878906 -21.46875 15.632812 -21.003906 17.34375 -20.078125 C 19.0625 -19.148438 20.40625 -17.820312 21.375 -16.09375 C 22.351562 -14.375 22.84375 -12.582031 22.84375 -10.71875 C 22.84375 -8.851562 22.367188 -7.066406 21.421875 -5.359375 C 20.484375 -3.660156 19.15625 -2.335938 17.4375 -1.390625 C 15.726562 -0.441406 13.941406 0.03125 12.078125 0.03125 C 10.222656 0.03125 8.4375 -0.441406 6.71875 -1.390625 C 5.007812 -2.335938 3.679688 -3.660156 2.734375 -5.359375 C 1.796875 -7.066406 1.328125 -8.851562 1.328125 -10.71875 C 1.328125 -12.582031 1.804688 -14.375 2.765625 -16.09375 C 3.722656 -17.820312 5.054688 -19.148438 6.765625 -20.078125 C 8.484375 -21.003906 10.253906 -21.46875 12.078125 -21.46875 Z M 12.09375 -16.125 C 11.1875 -16.125 10.304688 -15.894531 9.453125 -15.4375 C 8.597656 -14.976562 7.925781 -14.316406 7.4375 -13.453125 C 6.957031 -12.585938 6.71875 -11.6875 6.71875 -10.75 C 6.71875 -9.8125 6.953125 -8.914062 7.421875 -8.0625 C 7.898438 -7.21875 8.566406 -6.554688 9.421875 -6.078125 C 10.273438 -5.609375 11.164062 -5.375 12.09375 -5.375 C 13.03125 -5.375 13.925781 -5.609375 14.78125 -6.078125 C 15.632812 -6.554688 16.296875 -7.21875 16.765625 -8.0625 C 17.242188 -8.914062 17.484375 -9.8125 17.484375 -10.75 C 17.484375 -11.6875 17.238281 -12.585938 16.75 -13.453125 C 16.269531 -14.316406 15.597656 -14.976562 14.734375 -15.4375 C 13.878906 -15.894531 13 -16.125 12.09375 -16.125 Z M 12.09375 -16.125 "/></g></g></g><g fill="#000000" fill-opacity="1"><g transform="translate(298.307277, 172.899963)"><g><path d="M 4.03125 -21.5 L 17.625 -21.46875 C 19.289062 -21.445312 20.128906 -20.578125 20.140625 -18.859375 C 20.140625 -17.035156 19.238281 -16.113281 17.4375 -16.09375 L 13.421875 -16.09375 L 13.421875 -2.671875 C 13.410156 -0.910156 12.515625 -0.0195312 10.734375 0 C 8.941406 0 8.046875 -0.867188 8.046875 -2.609375 L 8.0625 -16.09375 L 4.03125 -16.09375 C 2.238281 -16.09375 1.34375 -16.988281 1.34375 -18.78125 C 1.351562 -20.550781 2.25 -21.457031 4.03125 -21.5 Z M 4.03125 -21.5 "/></g></g></g><g fill="#000000" fill-opacity="1"><g transform="translate(319.772135, 172.899963)"><g><path d="M 4.015625 -21.46875 C 5.804688 -21.445312 6.71875 -20.5625 6.75 -18.8125 L 6.75 -2.671875 C 6.726562 -0.878906 5.828125 0.0234375 4.046875 0.046875 C 2.253906 0.015625 1.359375 -0.882812 1.359375 -2.65625 L 1.359375 -18.796875 C 1.347656 -20.566406 2.234375 -21.457031 4.015625 -21.46875 Z M 4.015625 -21.46875 "/></g></g></g><g fill="#000000" fill-opacity="1"><g transform="translate(327.799638, 172.899963)"><g><path d="M 4.140625 -21.53125 C 5.035156 -21.53125 5.707031 -21.304688 6.15625 -20.859375 C 6.601562 -20.421875 8.195312 -18.550781 10.9375 -15.25 C 13.707031 -18.613281 15.316406 -20.507812 15.765625 -20.9375 C 16.222656 -21.375 16.898438 -21.59375 17.796875 -21.59375 C 18.671875 -21.59375 19.34375 -21.363281 19.8125 -20.90625 C 20.28125 -20.457031 20.503906 -19.78125 20.484375 -18.875 C 20.484375 -17.925781 20.007812 -17.039062 19.0625 -16.21875 L 14.484375 -10.828125 L 19.0625 -5.484375 C 20.070312 -4.535156 20.539062 -3.625 20.46875 -2.75 C 20.507812 -1.84375 20.285156 -1.164062 19.796875 -0.71875 C 19.304688 -0.269531 18.628906 -0.0507812 17.765625 -0.0625 C 16.835938 -0.0507812 16.144531 -0.285156 15.6875 -0.765625 C 15.226562 -1.242188 13.664062 -3.097656 11 -6.328125 C 8.28125 -3.035156 6.691406 -1.15625 6.234375 -0.6875 C 5.773438 -0.21875 5.082031 0.0078125 4.15625 0 C 3.289062 0.0195312 2.613281 -0.191406 2.125 -0.640625 C 1.632812 -1.097656 1.414062 -1.78125 1.46875 -2.6875 C 1.382812 -3.5625 1.847656 -4.46875 2.859375 -5.40625 L 7.640625 -10.75 L 2.875 -16.140625 C 1.925781 -16.972656 1.453125 -17.863281 1.453125 -18.8125 C 1.421875 -19.71875 1.640625 -20.394531 2.109375 -20.84375 C 2.585938 -21.300781 3.265625 -21.53125 4.140625 -21.53125 Z M 4.140625 -21.53125 "/></g></g></g></svg>