<svg xmlns="http://www.w3.org/2000/svg" xmlns:xlink="http://www.w3.org/1999/xlink" width="500" zoomAndPan="magnify" viewBox="0 0 375 374.999991" height="500" preserveAspectRatio="xMidYMid meet" version="1.0"><defs><g/></defs><g fill="#000000" fill-opacity="1"><g transform="translate(116.762495, 176.249988)"><g><path d="M 23.109375 -21.515625 C 23.109375 -19.460938 22.117188 -18.429688 20.140625 -18.421875 L 10.78125 -18.4375 C 8.707031 -18.414062 7.660156 -17.894531 7.640625 -16.875 C 7.671875 -15.894531 8.722656 -15.410156 10.796875 -15.421875 L 13.828125 -15.421875 C 20.003906 -15.398438 23.109375 -12.800781 23.140625 -7.625 C 23.140625 -2.59375 20.039062 -0.0625 13.84375 -0.03125 L 4.59375 -0.03125 C 2.539062 -0.0390625 1.519531 -1.046875 1.53125 -3.046875 C 1.539062 -5.085938 2.550781 -6.097656 4.5625 -6.078125 L 13.84375 -6.125 C 15.90625 -6.132812 16.9375 -6.660156 16.9375 -7.703125 C 16.9375 -8.753906 15.894531 -9.273438 13.8125 -9.265625 L 10.78125 -9.265625 C 4.613281 -9.273438 1.53125 -11.8125 1.53125 -16.875 C 1.488281 -22.007812 4.570312 -24.582031 10.78125 -24.59375 L 20.03125 -24.59375 C 22.0625 -24.582031 23.085938 -23.554688 23.109375 -21.515625 Z M 23.109375 -21.515625 "/></g></g><g transform="translate(141.341107, 176.249988)"><g><path d="M 20 -24.65625 C 22.039062 -24.65625 23.066406 -23.617188 23.078125 -21.546875 L 23.0625 -3.078125 C 23.0625 -1.003906 22.03125 0.0195312 19.96875 0 C 17.914062 0.0078125 16.894531 -1.003906 16.90625 -3.046875 L 16.90625 -9.25 L 12.390625 -9.234375 C 10.285156 -9.234375 9.21875 -10.253906 9.1875 -12.296875 C 9.195312 -14.347656 10.265625 -15.367188 12.390625 -15.359375 L 16.90625 -15.40625 L 16.90625 -21.546875 C 16.90625 -23.617188 17.9375 -24.65625 20 -24.65625 Z M 4.625 -24.625 C 6.6875 -24.613281 7.71875 -23.582031 7.71875 -21.53125 L 7.703125 -3.078125 C 7.691406 -1.046875 6.660156 -0.0195312 4.609375 0 C 2.554688 -0.0078125 1.535156 -1.03125 1.546875 -3.0625 L 1.546875 -21.515625 C 1.546875 -23.566406 2.570312 -24.601562 4.625 -24.625 Z M 4.625 -24.625 "/></g></g><g transform="translate(165.965861, 176.249988)"><g><path d="M 4.609375 -24.625 L 20.171875 -24.59375 C 22.085938 -24.5625 23.050781 -23.566406 23.0625 -21.609375 C 23.0625 -19.515625 22.023438 -18.453125 19.953125 -18.421875 L 7.703125 -18.421875 L 7.703125 -6.171875 L 19.921875 -6.171875 C 21.992188 -6.160156 23.03125 -5.125 23.03125 -3.0625 C 23.019531 -1.039062 22.003906 -0.0195312 19.984375 0 L 4.609375 0 C 2.566406 0 1.539062 -0.992188 1.53125 -2.984375 L 1.53125 -21.515625 C 1.539062 -23.546875 2.566406 -24.582031 4.609375 -24.625 Z M 9.171875 -12.234375 C 9.191406 -14.273438 10.207031 -15.3125 12.21875 -15.34375 L 18.40625 -15.34375 C 20.457031 -15.320312 21.5 -14.296875 21.53125 -12.265625 C 21.488281 -10.210938 20.453125 -9.1875 18.421875 -9.1875 L 12.234375 -9.1875 C 10.203125 -9.175781 9.179688 -10.191406 9.171875 -12.234375 Z M 9.171875 -12.234375 "/></g></g><g transform="translate(190.559854, 176.249988)"><g><path d="M 1.5625 -12.234375 C 1.582031 -14.273438 2.597656 -15.3125 4.609375 -15.34375 L 10.796875 -15.34375 C 12.835938 -15.320312 13.875 -14.296875 13.90625 -12.265625 C 13.863281 -10.210938 12.832031 -9.1875 10.8125 -9.1875 L 4.625 -9.1875 C 2.59375 -9.175781 1.570312 -10.191406 1.5625 -12.234375 Z M 1.5625 -12.234375 "/></g></g><g transform="translate(205.940712, 176.249988)"><g><path d="M 4.625 -24.59375 L 15.421875 -24.59375 C 17.429688 -24.59375 19.207031 -23.816406 20.75 -22.265625 C 22.300781 -20.710938 23.070312 -18.9375 23.0625 -16.9375 C 23.0625 -14.8125 22.675781 -13.015625 21.90625 -11.546875 C 21.132812 -10.085938 19.96875 -9.335938 18.40625 -9.296875 L 22.203125 -5.4375 C 22.804688 -4.832031 23.109375 -4.039062 23.109375 -3.0625 C 23.078125 -1.007812 22.050781 0.0078125 20.03125 0 C 18.988281 0.03125 17.957031 -0.46875 16.9375 -1.5 L 10.796875 -9.140625 C 9.753906 -10.234375 9.226562 -11.289062 9.21875 -12.3125 C 9.21875 -14.375 10.253906 -15.398438 12.328125 -15.390625 L 14.515625 -15.40625 C 16.128906 -15.382812 16.925781 -15.882812 16.90625 -16.90625 C 16.90625 -17.914062 16.101562 -18.421875 14.5 -18.421875 L 7.71875 -18.421875 L 7.71875 -3.078125 C 7.726562 -1.023438 6.695312 0 4.625 0 C 2.5625 0.0078125 1.535156 -1.003906 1.546875 -3.046875 L 1.546875 -21.546875 C 1.554688 -23.554688 2.582031 -24.570312 4.625 -24.59375 Z M 4.625 -24.59375 "/></g></g><g transform="translate(230.565466, 176.249988)"><g><path d="M 4.625 0.015625 C 4.101562 0.015625 3.597656 -0.113281 3.109375 -0.375 C 2.617188 -0.632812 2.234375 -1.007812 1.953125 -1.5 C 1.679688 -2 1.546875 -2.519531 1.546875 -3.0625 C 1.546875 -3.59375 3.078125 -6.9375 6.140625 -13.09375 C 9.210938 -19.257812 10.878906 -22.585938 11.140625 -23.078125 C 11.410156 -23.566406 11.789062 -23.945312 12.28125 -24.21875 C 12.769531 -24.488281 13.285156 -24.625 13.828125 -24.625 C 14.359375 -24.625 14.863281 -24.488281 15.34375 -24.21875 C 15.832031 -23.945312 16.210938 -23.566406 16.484375 -23.078125 C 16.753906 -22.585938 18.429688 -19.257812 21.515625 -13.09375 C 24.597656 -6.9375 26.140625 -3.59375 26.140625 -3.0625 C 26.140625 -2.519531 26 -2 25.71875 -1.5 C 25.445312 -1.007812 25.0625 -0.632812 24.5625 -0.375 C 24.070312 -0.113281 23.570312 0.015625 23.0625 0.015625 Z M 18.03125 -6.1875 L 13.828125 -14.84375 L 9.59375 -6.1875 Z M 18.03125 -6.1875 "/></g></g></g></svg>